<?xml version="1.0" encoding="UTF-8" standalone="no"?>
<svg width="368.697mm" height="145.058mm"
 viewBox="0 0 1858 731"
 xmlns="http://www.w3.org/2000/svg" xmlns:xlink="http://www.w3.org/1999/xlink"  version="1.2" baseProfile="tiny">
<title>Qt SVG Document</title>
<desc>Generated with Qt</desc>
<defs>
</defs>
<g fill="none" stroke="black" stroke-width="1" fill-rule="evenodd" stroke-linecap="square" stroke-linejoin="bevel" >

<g fill="#000000" fill-opacity="1" stroke="none" transform="matrix(1,0,0,1,0,0)"
font-family="MS Shell Dlg 2" font-size="14.6667" font-weight="400" font-style="normal" 
>
<rect x="0" y="0" width="1858" height="731"/>
</g>

<g fill="none" stroke="#000000" stroke-opacity="1" stroke-width="1" stroke-linecap="square" stroke-linejoin="bevel" transform="matrix(1,0,0,1,0,0)"
font-family="MS Shell Dlg 2" font-size="14.6667" font-weight="400" font-style="normal" 
>
</g>

<g fill="#000000" fill-opacity="1" stroke="#000000" stroke-opacity="1" stroke-width="1" stroke-linecap="butt" stroke-linejoin="miter" stroke-miterlimit="2" transform="matrix(1,0,0,1,0,0)"
font-family="MS Shell Dlg 2" font-size="14.6667" font-weight="400" font-style="normal" 
>
</g>

<g fill="#000000" fill-opacity="1" stroke="#000000" stroke-opacity="1" stroke-width="1" stroke-linecap="butt" stroke-linejoin="miter" stroke-miterlimit="2" transform="matrix(1,0,0,1,0,0)"
font-family="MS Shell Dlg 2" font-size="14.6667" font-weight="400" font-style="normal" 
>
</g>

<g fill="#ffffff" fill-opacity="1" stroke="#ffffff" stroke-opacity="1" stroke-width="1" stroke-linecap="square" stroke-linejoin="bevel" transform="matrix(1,0,0,1,0,0)"
font-family="MS Shell Dlg 2" font-size="14.6667" font-weight="400" font-style="normal" 
>
<polyline fill="none" vector-effect="non-scaling-stroke" points="1751.38,731 1751.38,-1.13687e-13 " />
<polyline fill="none" vector-effect="non-scaling-stroke" points="1751.38,731 106.625,731 " />
<polyline fill="none" vector-effect="non-scaling-stroke" points="106.625,731 106.625,-1.13687e-13 " />
<polyline fill="none" vector-effect="non-scaling-stroke" points="1751.38,657.9 106.625,657.9 " />
<polyline fill="none" vector-effect="non-scaling-stroke" points="1751.38,584.8 106.625,584.8 " />
<polyline fill="none" vector-effect="non-scaling-stroke" points="1751.38,511.7 106.625,511.7 " />
<polyline fill="none" vector-effect="non-scaling-stroke" points="1751.38,438.6 106.625,438.6 " />
<polyline fill="none" vector-effect="non-scaling-stroke" points="1751.38,365.5 106.625,365.5 " />
<polyline fill="none" vector-effect="non-scaling-stroke" points="1751.38,292.4 106.625,292.4 " />
<polyline fill="none" vector-effect="non-scaling-stroke" points="1751.38,219.3 106.625,219.3 " />
<polyline fill="none" vector-effect="non-scaling-stroke" points="1751.38,146.2 106.625,146.2 " />
<polyline fill="none" vector-effect="non-scaling-stroke" points="1751.38,73.1 106.625,73.1 " />
<polyline fill="none" vector-effect="non-scaling-stroke" points="1751.38,694.45 106.625,694.45 " />
<polyline fill="none" vector-effect="non-scaling-stroke" points="1751.38,621.35 106.625,621.35 " />
<polyline fill="none" vector-effect="non-scaling-stroke" points="1751.38,548.25 106.625,548.25 " />
<polyline fill="none" vector-effect="non-scaling-stroke" points="1751.38,475.15 106.625,475.15 " />
<polyline fill="none" vector-effect="non-scaling-stroke" points="1751.38,402.05 106.625,402.05 " />
<polyline fill="none" vector-effect="non-scaling-stroke" points="1751.38,328.95 106.625,328.95 " />
<polyline fill="none" vector-effect="non-scaling-stroke" points="1751.38,255.85 106.625,255.85 " />
<polyline fill="none" vector-effect="non-scaling-stroke" points="1751.38,182.75 106.625,182.75 " />
<polyline fill="none" vector-effect="non-scaling-stroke" points="1751.38,109.65 106.625,109.65 " />
<polyline fill="none" vector-effect="non-scaling-stroke" points="1751.38,36.55 106.625,36.55 " />
<polyline fill="none" vector-effect="non-scaling-stroke" points="143.175,731 143.175,-1.13687e-13 " />
<polyline fill="none" vector-effect="non-scaling-stroke" points="179.725,731 179.725,-1.13687e-13 " />
<polyline fill="none" vector-effect="non-scaling-stroke" points="216.275,731 216.275,-1.13687e-13 " />
<polyline fill="none" vector-effect="non-scaling-stroke" points="252.825,731 252.825,-1.13687e-13 " />
<polyline fill="none" vector-effect="non-scaling-stroke" points="289.375,731 289.375,-1.13687e-13 " />
<polyline fill="none" vector-effect="non-scaling-stroke" points="325.925,731 325.925,-1.13687e-13 " />
<polyline fill="none" vector-effect="non-scaling-stroke" points="362.475,731 362.475,-1.13687e-13 " />
<polyline fill="none" vector-effect="non-scaling-stroke" points="399.025,731 399.025,-1.13687e-13 " />
<polyline fill="none" vector-effect="non-scaling-stroke" points="435.575,731 435.575,-1.13687e-13 " />
<polyline fill="none" vector-effect="non-scaling-stroke" points="472.125,731 472.125,-1.13687e-13 " />
<polyline fill="none" vector-effect="non-scaling-stroke" points="508.675,731 508.675,-1.13687e-13 " />
<polyline fill="none" vector-effect="non-scaling-stroke" points="545.225,731 545.225,-1.13687e-13 " />
<polyline fill="none" vector-effect="non-scaling-stroke" points="581.775,731 581.775,-1.13687e-13 " />
<polyline fill="none" vector-effect="non-scaling-stroke" points="618.325,731 618.325,-1.13687e-13 " />
<polyline fill="none" vector-effect="non-scaling-stroke" points="654.875,731 654.875,-1.13687e-13 " />
<polyline fill="none" vector-effect="non-scaling-stroke" points="691.425,731 691.425,-1.13687e-13 " />
<polyline fill="none" vector-effect="non-scaling-stroke" points="727.975,731 727.975,-1.13687e-13 " />
<polyline fill="none" vector-effect="non-scaling-stroke" points="764.525,731 764.525,-1.13687e-13 " />
<polyline fill="none" vector-effect="non-scaling-stroke" points="801.075,731 801.075,-1.13687e-13 " />
<polyline fill="none" vector-effect="non-scaling-stroke" points="837.625,731 837.625,-1.13687e-13 " />
<polyline fill="none" vector-effect="non-scaling-stroke" points="874.175,731 874.175,-1.13687e-13 " />
<polyline fill="none" vector-effect="non-scaling-stroke" points="910.725,731 910.725,-1.13687e-13 " />
<polyline fill="none" vector-effect="non-scaling-stroke" points="947.275,731 947.275,-1.13687e-13 " />
<polyline fill="none" vector-effect="non-scaling-stroke" points="983.825,731 983.825,-1.13687e-13 " />
<polyline fill="none" vector-effect="non-scaling-stroke" points="1020.38,731 1020.38,-1.13687e-13 " />
<polyline fill="none" vector-effect="non-scaling-stroke" points="1056.92,731 1056.93,-1.13687e-13 " />
<polyline fill="none" vector-effect="non-scaling-stroke" points="1093.48,731 1093.48,-1.13687e-13 " />
<polyline fill="none" vector-effect="non-scaling-stroke" points="1130.03,731 1130.03,-1.13687e-13 " />
<polyline fill="none" vector-effect="non-scaling-stroke" points="1166.58,731 1166.58,-1.13687e-13 " />
<polyline fill="none" vector-effect="non-scaling-stroke" points="1203.12,731 1203.13,-1.13687e-13 " />
<polyline fill="none" vector-effect="non-scaling-stroke" points="1239.68,731 1239.68,-1.13687e-13 " />
<polyline fill="none" vector-effect="non-scaling-stroke" points="1276.23,731 1276.23,-1.13687e-13 " />
<polyline fill="none" vector-effect="non-scaling-stroke" points="1312.78,731 1312.78,-1.13687e-13 " />
<polyline fill="none" vector-effect="non-scaling-stroke" points="1349.33,731 1349.33,-1.13687e-13 " />
<polyline fill="none" vector-effect="non-scaling-stroke" points="1385.88,731 1385.88,-1.13687e-13 " />
<polyline fill="none" vector-effect="non-scaling-stroke" points="1422.43,731 1422.43,-1.13687e-13 " />
<polyline fill="none" vector-effect="non-scaling-stroke" points="1458.98,731 1458.98,-1.13687e-13 " />
<polyline fill="none" vector-effect="non-scaling-stroke" points="1495.53,731 1495.53,-1.13687e-13 " />
<polyline fill="none" vector-effect="non-scaling-stroke" points="1532.08,731 1532.08,-1.13687e-13 " />
<polyline fill="none" vector-effect="non-scaling-stroke" points="1568.63,731 1568.63,-1.13687e-13 " />
<polyline fill="none" vector-effect="non-scaling-stroke" points="1605.18,731 1605.18,-1.13687e-13 " />
<polyline fill="none" vector-effect="non-scaling-stroke" points="1641.73,731 1641.73,-1.13687e-13 " />
<polyline fill="none" vector-effect="non-scaling-stroke" points="1678.28,731 1678.28,-1.13687e-13 " />
<polyline fill="none" vector-effect="non-scaling-stroke" points="1714.83,731 1714.83,-1.13687e-13 " />
</g>

<g fill="none" stroke="#000000" stroke-opacity="1" stroke-width="1" stroke-linecap="square" stroke-linejoin="bevel" transform="matrix(1,0,0,1,0,0)"
font-family="MS Shell Dlg 2" font-size="14.6667" font-weight="400" font-style="normal" 
>
</g>
</g>
</svg>
